<svg id="Camada_1" data-name="Camada 1" xmlns="http://www.w3.org/2000/svg" viewBox="0 0 683 105"><defs><style>.cls-1{fill:#fff;}</style></defs><title>colab_monocromatico_negativo</title><polygon class="cls-1" points="234.69 93.1 234.69 98.9 234.69 104.7 409.19 104.7 409.19 98.9 409.19 93.1 234.69 93.1"/><rect class="cls-1" x="316.53" y="23.5" width="11.67" height="58.82"/><path class="cls-1" d="M217.28,35.26V23.5H167.71a8.27,8.27,0,0,0-8.27,8.27V74a8.28,8.28,0,0,0,8.27,8.28h49.57V70.55H171.1V58.79h46.18V47H171.1V35.26Z"/><path class="cls-1" d="M65.09,23.5H49.41L12.15,61.86V23.5H.39V76.44a5.88,5.88,0,0,0,10.12,4.08L30.13,60l19.28,22.3H65.09L38.31,51.48Z"/><path class="cls-1" d="M135.3,82.32a5.9,5.9,0,0,1-4-1.56L90.21,42.81V82.32H78.44V29.38a5.89,5.89,0,0,1,9.88-4.32L129.42,63V23.5h11.76V76.44a5.87,5.87,0,0,1-3.52,5.38A5.75,5.75,0,0,1,135.3,82.32Z"/><path class="cls-1" d="M403.3,82.32a5.9,5.9,0,0,1-4-1.56l-41.1-37.95V82.32H346.44V29.38a5.89,5.89,0,0,1,9.88-4.32L397.42,63V23.5h11.77V76.44a5.88,5.88,0,0,1-3.53,5.38A5.75,5.75,0,0,1,403.3,82.32Z"/><path class="cls-1" d="M241.41,82.32a5.88,5.88,0,0,1-5.88-5.88V23.5h11.76V60.6l14.18-16.43a5.89,5.89,0,0,1,8.76-.17l16.28,17.49v-38h11.76V76.44a5.88,5.88,0,0,1-10.19,4l-22-23.62L245.87,80.28A5.89,5.89,0,0,1,241.41,82.32Z"/><path class="cls-1" d="M454.84,80.55a29.77,29.77,0,0,1-8.76-1.25,16.5,16.5,0,0,1-7.1-4.39,20.94,20.94,0,0,1-4.7-8.66,49.84,49.84,0,0,1-1.67-14.09,54.06,54.06,0,0,1,1.57-14.24,20.68,20.68,0,0,1,4.49-8.71,15.68,15.68,0,0,1,7.09-4.39,32.42,32.42,0,0,1,9.29-1.25q4.17,0,9.08.37c3.27.24,6.4.61,9.39,1.09v4.91H457.24a20.43,20.43,0,0,0-9,1.77q-3.66,1.77-5.53,6.63t-1.88,14q0,8.88,2,13.57a11.69,11.69,0,0,0,5.64,6.42,20.79,20.79,0,0,0,8.87,1.72h17v4.8q-2.42.42-5.59.83t-6.73.63Q458.5,80.55,454.84,80.55Z"/><path class="cls-1" d="M507.85,80.55a40.28,40.28,0,0,1-10.59-1.25,16.36,16.36,0,0,1-7.57-4.39,19.3,19.3,0,0,1-4.48-8.71A57.35,57.35,0,0,1,483.75,52a57.8,57.8,0,0,1,1.46-14.34,19,19,0,0,1,4.48-8.67,16.18,16.18,0,0,1,7.57-4.27,41.72,41.72,0,0,1,10.59-1.2,39.76,39.76,0,0,1,10.59,1.25A16.53,16.53,0,0,1,526,29.05a19.29,19.29,0,0,1,4.54,8.66A55.66,55.66,0,0,1,532.06,52a56.16,56.16,0,0,1-1.51,14.35A19.59,19.59,0,0,1,526.06,75a16.16,16.16,0,0,1-7.56,4.34A40.91,40.91,0,0,1,507.85,80.55Zm0-6.79a28.75,28.75,0,0,0,6.84-.73,9.56,9.56,0,0,0,4.95-2.92,14.9,14.9,0,0,0,3-6.57,52.16,52.16,0,0,0,1-11.59,51.32,51.32,0,0,0-1-11.58,14.84,14.84,0,0,0-3-6.47A9.62,9.62,0,0,0,514.69,31,32.64,32.64,0,0,0,501,31a9.64,9.64,0,0,0-4.9,2.92,14.84,14.84,0,0,0-3,6.47A51.32,51.32,0,0,0,492,52a52.16,52.16,0,0,0,1,11.59,14.9,14.9,0,0,0,3,6.57A9.57,9.57,0,0,0,501,73,28.55,28.55,0,0,0,507.85,73.76Z"/><path class="cls-1" d="M560.55,80a17,17,0,0,1-8-1.73,10.92,10.92,0,0,1-4.9-5.63,27.6,27.6,0,0,1-1.67-10.59V.3h8.24V61a23.34,23.34,0,0,0,.94,7.57,6.35,6.35,0,0,0,2.72,3.55,11.55,11.55,0,0,0,4.17,1.3l5.64.63v6Z"/><path class="cls-1" d="M590.15,80.55A14.37,14.37,0,0,1,580,76.9q-4-3.66-4-10.34v-4A14,14,0,0,1,580.39,52q4.33-4.06,13.1-4.07h18.89V41a13.32,13.32,0,0,0-1.2-5.9,8.23,8.23,0,0,0-4.28-3.81c-2-.9-5-1.35-8.92-1.35H580.66V25c2.43-.42,5.27-.8,8.5-1.15a110.67,110.67,0,0,1,11.43-.52A29.67,29.67,0,0,1,611.86,25a12.6,12.6,0,0,1,6.62,5.58,20.25,20.25,0,0,1,2.14,10V79.92h-6.36l-1.57-6.36A13.4,13.4,0,0,1,610.13,75c-1.42.69-3.23,1.48-5.42,2.34a53.77,53.77,0,0,1-7.1,2.25A31.37,31.37,0,0,1,590.15,80.55Zm3.44-6.16a16,16,0,0,0,4.28-.42q2.4-.51,4.91-1.2t4.64-1.41c1.43-.48,2.59-.9,3.5-1.25a12.68,12.68,0,0,1,1.46-.52V52.06l-17,.73c-4,.14-6.8,1.11-8.51,2.92a9.8,9.8,0,0,0-2.55,7v2.51a9.22,9.22,0,0,0,1.41,5.37,7.6,7.6,0,0,0,3.54,2.87A13.58,13.58,0,0,0,593.59,74.39Z"/><path class="cls-1" d="M663,80.55a26.19,26.19,0,0,1-7.36-1,37.15,37.15,0,0,1-6.21-2.4,48.09,48.09,0,0,1-5-2.87l-1.57,5.63h-6.68V.3h8.25v29a53.24,53.24,0,0,1,9-4.07,28,28,0,0,1,9.29-1.77,20.15,20.15,0,0,1,11.06,2.81q4.38,2.82,6.63,9.19t2.24,17a50.28,50.28,0,0,1-2,15,19.27,19.27,0,0,1-6.32,9.71Q670,80.55,663,80.55Zm-2.61-6.89a12.25,12.25,0,0,0,7.67-2.35,14.51,14.51,0,0,0,4.7-7.15,38,38,0,0,0,1.61-12q0-9.18-1.82-13.82c-1.22-3.1-2.87-5.2-5-6.32a15.12,15.12,0,0,0-7.2-1.67,25.19,25.19,0,0,0-8.4,1.31,52.82,52.82,0,0,0-7.56,3.39V69.17q3.23,1.58,7.14,3A25.18,25.18,0,0,0,660.38,73.66Z"/></svg>