<svg id="Camada_1" data-name="Camada 1" xmlns="http://www.w3.org/2000/svg" viewBox="0 0 849 105"><defs><style>.cls-1{fill:#fff;}</style></defs><title>analytics_monocromatico_negativo</title><polygon class="cls-1" points="234.59 93.1 234.59 98.9 234.59 104.7 409.09 104.7 409.09 98.9 409.09 93.1 234.59 93.1"/><rect class="cls-1" x="316.43" y="23.5" width="11.67" height="58.82"/><path class="cls-1" d="M217.18,35.26V23.5H167.62a8.28,8.28,0,0,0-8.28,8.28V74a8.28,8.28,0,0,0,8.28,8.28h49.56V70.56H171V58.79h46.17V47H171V35.26Z"/><path class="cls-1" d="M65,23.5H49.31L12.06,61.86V23.5H.29V76.44a5.88,5.88,0,0,0,10.12,4.08L30,60l19.28,22.3H65L38.21,51.48Z"/><path class="cls-1" d="M135.21,82.32a5.86,5.86,0,0,1-4-1.56L90.11,42.82v39.5H78.35V29.38a5.88,5.88,0,0,1,9.87-4.32L129.32,63V23.5h11.77V76.44a5.88,5.88,0,0,1-5.88,5.88Z"/><path class="cls-1" d="M403.21,82.32a5.86,5.86,0,0,1-4-1.56L358.11,42.82v39.5H346.35V29.38a5.88,5.88,0,0,1,9.87-4.32L397.32,63V23.5h11.77V76.44a5.88,5.88,0,0,1-5.88,5.88Z"/><path class="cls-1" d="M241.31,82.32a5.9,5.9,0,0,1-5.88-5.88V23.5H247.2V60.61l14.17-16.44a5.89,5.89,0,0,1,8.76-.17l16.28,17.49v-38h11.76V76.44a5.88,5.88,0,0,1-10.18,4L266,56.82,245.77,80.28A5.89,5.89,0,0,1,241.31,82.32Z"/><path class="cls-1" d="M436.36,76.44q-3.9-3.73-3.9-10.18v-4q0-6.75,4.42-10.7t12.93-3.94h18.8V40.81q0-5.61-3.06-8.31t-11.27-2.7H437V24.92a120.34,120.34,0,0,1,20.26-1.67q10.06,0,14.8,4.11t4.73,13V79.56h-6.34l-1.56-6.34a27.42,27.42,0,0,1-4.52,2.39,58.88,58.88,0,0,1-8.67,3.17,33.76,33.76,0,0,1-9.25,1.4A14,14,0,0,1,436.36,76.44ZM457,73c2.7-.69,5.14-1.41,7.32-2.18s3.62-1.28,4.31-1.56V51.82l-16.93.73q-5.71.21-8.36,2.8a9.45,9.45,0,0,0-2.65,7.07v2.49c0,3.19.91,5.51,2.75,7a10.41,10.41,0,0,0,6.7,2.18A28.09,28.09,0,0,0,457,73Z"/><path class="cls-1" d="M492.3,24.09h6.44l1.76,6.13a45.54,45.54,0,0,1,9.66-5,29.56,29.56,0,0,1,10.6-2q8.63,0,12.88,5.3t4.26,13.4V79.56h-8.21V42.78A12.55,12.55,0,0,0,526.63,34a10.87,10.87,0,0,0-8.47-3.38,27.93,27.93,0,0,0-8.88,1.3A49.74,49.74,0,0,0,500.5,36V79.56h-8.2Z"/><path class="cls-1" d="M554.05,76.44q-3.88-3.73-3.89-10.18v-4q0-6.75,4.41-10.7t12.94-3.94h18.8V40.81q0-5.61-3.07-8.31T572,29.8H554.73V24.92A120.34,120.34,0,0,1,575,23.25q10.07,0,14.8,4.11t4.73,13V79.56h-6.34l-1.56-6.34a27.42,27.42,0,0,1-4.52,2.39,58.88,58.88,0,0,1-8.67,3.17,33.76,33.76,0,0,1-9.25,1.4A14,14,0,0,1,554.05,76.44ZM574.67,73c2.71-.69,5.15-1.41,7.33-2.18s3.62-1.28,4.31-1.56V51.82l-16.93.73q-5.71.21-8.37,2.8a9.49,9.49,0,0,0-2.65,7.07v2.49q0,4.78,2.76,7a10.41,10.41,0,0,0,6.7,2.18A28,28,0,0,0,574.67,73Z"/><path class="cls-1" d="M613.58,75.61Q610,71.56,610,61.8V.3h8.21V60.76c0,4.57.62,7.68,1.87,9.35a8.35,8.35,0,0,0,5.92,3l5.61.62v5.92h-7.06Q617.16,79.66,613.58,75.61Z"/><path class="cls-1" d="M662.45,79.56a14.13,14.13,0,0,1-8.51-3.07q-3.86-3-6-9.92l-13.3-42.48h8.63L655.6,64.81q2.6,7.68,8.62,7.68l14.23-48.4h8.42l-20.26,69.8-4.78,10.29h-6.44Z"/><path class="cls-1" d="M703.07,75.35q-3.84-4.2-3.64-13.76l.32-30.75h-8.84v-5.3l8.94-1.45L701.2,8.61h6.34V24.09h16v6.75h-16V61.59c0,4.22.79,7.11,2.39,8.67a9.47,9.47,0,0,0,6,2.65l6.75.62v6h-7.58Q706.92,79.56,703.07,75.35Z"/><path class="cls-1" d="M734.91,13.75a1.62,1.62,0,0,1-.47-1.19V4.45a1.47,1.47,0,0,1,1.66-1.66h5.82c1,0,1.56.56,1.56,1.66v8.11c0,1.1-.52,1.66-1.56,1.66H736.1A1.62,1.62,0,0,1,734.91,13.75Zm0,10.34h8.2V79.56h-8.2Z"/><path class="cls-1" d="M762.64,74q-5.76-6.18-5.76-22.07,0-11.11,2.65-17.35t7.53-8.68a27.1,27.1,0,0,1,12.15-2.44,108.15,108.15,0,0,1,18.39,1.46V29.8H781.39a19.37,19.37,0,0,0-9.19,1.87q-3.48,1.88-5.3,6.7t-1.82,13.76q0,8.52,1.93,13.25a12,12,0,0,0,5.45,6.54,19.59,19.59,0,0,0,9,1.82h16.93v4.78A115.44,115.44,0,0,1,779,80.18Q768.41,80.18,762.64,74Z"/><path class="cls-1" d="M817.13,79.77a66.65,66.65,0,0,1-9.66-1v-5h22.75q5.81,0,8.51-1.56c1.8-1,2.71-3.22,2.71-6.54v-2.5q0-7.78-10.08-7.79h-7.79q-8,0-12.31-3.11T807,41.64V38.73q0-7.89,4.62-11.53t14.91-3.63c3,0,6.49.15,10.54.46s7.22.68,9.51,1.09v5h-21.4q-5.61,0-8.31,1.87t-2.71,6.75V41c0,3,.89,5,2.65,6s4.49,1.51,8.16,1.51h7.89q7.59,0,11.74,3.53t4.16,10.18v3.84q0,7.9-5.09,11t-14.75,3.11Q824.19,80.18,817.13,79.77Z"/></svg>