<svg id="Camada_1" data-name="Camada 1" xmlns="http://www.w3.org/2000/svg" viewBox="0 0 701 105"><defs><style>.cls-1{fill:#fff;}</style></defs><title>social_monocromatico_negativo</title><polygon class="cls-1" points="234.6 93.1 234.6 98.9 234.6 104.7 409.1 104.7 409.1 98.9 409.1 93.1 234.6 93.1"/><rect class="cls-1" x="316.44" y="23.5" width="11.67" height="58.82"/><path class="cls-1" d="M217.19,35.26V23.5H167.63a8.28,8.28,0,0,0-8.28,8.28V74a8.28,8.28,0,0,0,8.28,8.28h49.56V70.56H171V58.79h46.17V47H171V35.26Z"/><path class="cls-1" d="M65,23.5H49.32L12.07,61.86V23.5H.31V76.44a5.88,5.88,0,0,0,10.11,4.08L30.05,60l19.27,22.3H65L38.22,51.48Z"/><path class="cls-1" d="M135.22,82.32a5.9,5.9,0,0,1-4-1.56L90.12,42.82v39.5H78.36V29.38a5.88,5.88,0,0,1,9.87-4.32L129.34,63V23.5H141.1V76.44a5.87,5.87,0,0,1-5.88,5.88Z"/><path class="cls-1" d="M403.22,82.32a5.9,5.9,0,0,1-4-1.56L358.12,42.82v39.5H346.36V29.38a5.88,5.88,0,0,1,9.87-4.32L397.34,63V23.5H409.1V76.44a5.87,5.87,0,0,1-5.88,5.88Z"/><path class="cls-1" d="M241.33,82.32a5.88,5.88,0,0,1-5.88-5.88V23.5h11.76V60.61l14.17-16.44a5.89,5.89,0,0,1,8.76-.17l16.28,17.49v-38h11.77V76.44a5.89,5.89,0,0,1-10.19,4L266,56.82,245.78,80.28A5.87,5.87,0,0,1,241.33,82.32Z"/><path class="cls-1" d="M443.07,79.77a66.65,66.65,0,0,1-9.66-1v-5h22.75q5.82,0,8.52-1.56t2.7-6.54v-2.5q0-7.78-10.08-7.79h-7.79q-8,0-12.31-3.11t-4.31-10.6V38.73q0-7.89,4.62-11.53t14.91-3.63q4.47,0,10.54.46c4.06.32,7.22.68,9.51,1.09v5h-21.4q-5.61,0-8.31,1.87t-2.7,6.75V41q0,4.47,2.65,6t8.15,1.51h7.9q7.58,0,11.74,3.53t4.15,10.18v3.84q0,7.9-5.09,11t-14.75,3.11Q450.13,80.18,443.07,79.77Z"/><path class="cls-1" d="M496,77.79a15.27,15.27,0,0,1-7.74-8.57q-2.55-6.18-2.55-17.5t2.6-17.61q2.6-6.18,7.69-8.47t13.71-2.28q8.52,0,13.71,2.34a15.27,15.27,0,0,1,7.79,8.51q2.6,6.2,2.6,17.51t-2.6,17.5a15.55,15.55,0,0,1-7.74,8.57q-5.14,2.4-13.76,2.39T496,77.79Zm22.69-5.87c2.19-1,3.86-3.06,5-6.18s1.77-7.79,1.77-14-.57-10.89-1.72-14-2.82-5.13-5-6.13a28,28,0,0,0-18.13,0c-2.18,1-3.85,3.05-5,6.13s-1.71,7.74-1.71,14,.57,10.91,1.71,14,2.81,5.18,5,6.18a22.11,22.11,0,0,0,9.09,1.51A21.76,21.76,0,0,0,518.64,71.92Z"/><path class="cls-1" d="M551.37,74q-5.77-6.18-5.77-22.07,0-11.11,2.65-17.35t7.53-8.68a27.18,27.18,0,0,1,12.16-2.44,108.11,108.11,0,0,1,18.38,1.46V29.8h-16.2a19.42,19.42,0,0,0-9.2,1.87q-3.48,1.88-5.29,6.7t-1.82,13.76q0,8.52,1.92,13.25a12,12,0,0,0,5.45,6.54,19.62,19.62,0,0,0,9,1.82h16.93v4.78a115.32,115.32,0,0,1-19.42,1.66Q557.13,80.18,551.37,74Z"/><path class="cls-1" d="M598.53,13.75a1.62,1.62,0,0,1-.47-1.19V4.45a1.47,1.47,0,0,1,1.66-1.66h5.82c1,0,1.56.56,1.56,1.66v8.11c0,1.1-.52,1.66-1.56,1.66h-5.82A1.62,1.62,0,0,1,598.53,13.75Zm0,10.34h8.2V79.56h-8.2Z"/><path class="cls-1" d="M623.15,76.44q-3.9-3.73-3.9-10.18v-4q0-6.75,4.42-10.7t12.93-3.94h18.8V40.81q0-5.61-3.06-8.31t-11.27-2.7H623.82V24.92a120.34,120.34,0,0,1,20.26-1.67q10.08,0,14.8,4.11t4.73,13V79.56h-6.34l-1.56-6.34a27.42,27.42,0,0,1-4.52,2.39,58.05,58.05,0,0,1-8.67,3.17,33.74,33.74,0,0,1-9.24,1.4A14,14,0,0,1,623.15,76.44ZM643.77,73c2.7-.69,5.14-1.41,7.32-2.18s3.62-1.28,4.31-1.56V51.82l-16.93.73q-5.72.21-8.36,2.8a9.45,9.45,0,0,0-2.65,7.07v2.49c0,3.19.91,5.51,2.75,7a10.43,10.43,0,0,0,6.7,2.18A28.09,28.09,0,0,0,643.77,73Z"/><path class="cls-1" d="M682.67,75.61q-3.58-4-3.58-13.81V.3h8.2V60.76c0,4.57.63,7.68,1.87,9.35a8.35,8.35,0,0,0,5.92,3l5.61.62v5.92h-7.06Q686.25,79.66,682.67,75.61Z"/></svg>