<svg id="Camada_1" data-name="Camada 1" xmlns="http://www.w3.org/2000/svg" viewBox="0 0 955 103"><defs><style>.cls-1{fill:#fff;}</style></defs><title>monitoring_monocromatico_negativo</title><polygon class="cls-1" points="234.61 90.7 234.61 96.5 234.61 102.3 409.11 102.3 409.11 96.5 409.11 90.7 234.61 90.7"/><rect class="cls-1" x="316.45" y="21.1" width="11.67" height="58.82"/><path class="cls-1" d="M217.2,32.86V21.1H167.64a8.28,8.28,0,0,0-8.28,8.28V71.64a8.28,8.28,0,0,0,8.28,8.28H217.2V68.16H171V56.39H217.2V44.63H171V32.86Z"/><path class="cls-1" d="M65,21.1H49.33L12.08,59.46V21.1H.31V74a5.88,5.88,0,0,0,10.12,4.08l19.62-20.5,19.28,22.3H65L38.23,49.08Z"/><path class="cls-1" d="M135.23,79.92a5.86,5.86,0,0,1-4-1.56L90.13,40.42v39.5H78.37V27a5.88,5.88,0,0,1,9.87-4.32l41.1,37.94V21.1h11.77V74a5.88,5.88,0,0,1-5.88,5.88Z"/><path class="cls-1" d="M403.23,79.92a5.86,5.86,0,0,1-4-1.56L358.13,40.42v39.5H346.37V27a5.88,5.88,0,0,1,9.87-4.32l41.1,37.94V21.1h11.77V74a5.88,5.88,0,0,1-5.88,5.88Z"/><path class="cls-1" d="M241.33,79.92A5.9,5.9,0,0,1,235.45,74V21.1h11.77V58.21l14.17-16.44a5.89,5.89,0,0,1,8.76-.17l16.28,17.49v-38h11.76V74a5.88,5.88,0,0,1-10.18,4L266,54.42,245.79,77.88A5.89,5.89,0,0,1,241.33,79.92Z"/><path class="cls-1" d="M435.7,21.69h6.44l1.77,6.13q10.38-7.07,20.77-7.07A16.51,16.51,0,0,1,473.36,23a15.82,15.82,0,0,1,5.76,6,47.41,47.41,0,0,1,10.65-5.72,31.91,31.91,0,0,1,11.69-2.49q8.61,0,13,5.3t4.37,13.71v37.4H510.6V40.38a12.3,12.3,0,0,0-3.17-8.77,11.19,11.19,0,0,0-8.57-3.38,28.75,28.75,0,0,0-9.3,1.66,48.21,48.21,0,0,0-9.29,4.37,21,21,0,0,1,1,6.23V77.16h-8.2V40.38A12.51,12.51,0,0,0,470,31.61a10.84,10.84,0,0,0-8.46-3.38,27.85,27.85,0,0,0-8.88,1.3,49.41,49.41,0,0,0-8.78,4.1V77.16H435.7Z"/><path class="cls-1" d="M542.49,75.39a15.34,15.34,0,0,1-7.74-8.57q-2.55-6.18-2.54-17.5t2.59-17.61q2.6-6.18,7.69-8.47T556.2,21q8.52,0,13.71,2.34c3.47,1.55,6.06,4.39,7.8,8.51s2.59,10,2.59,17.51-.86,13.38-2.59,17.5A15.62,15.62,0,0,1,570,75.39q-5.15,2.4-13.77,2.39T542.49,75.39Zm22.7-5.87q3.27-1.5,5-6.18t1.76-14q0-9.34-1.71-14c-1.14-3.08-2.82-5.13-5-6.13a28,28,0,0,0-18.13,0c-2.18,1-3.84,3.05-5,6.13s-1.72,7.74-1.72,14,.57,10.91,1.72,14,2.8,5.18,5,6.18A22.11,22.11,0,0,0,556.2,71,21.82,21.82,0,0,0,565.19,69.52Z"/><path class="cls-1" d="M594.12,21.69h6.44l1.77,6.13a45.06,45.06,0,0,1,9.66-5,29.47,29.47,0,0,1,10.59-2q8.63,0,12.88,5.3t4.26,13.4V77.16h-8.2V40.38a12.55,12.55,0,0,0-3.07-8.77A10.84,10.84,0,0,0,620,28.23a28,28,0,0,0-8.89,1.3,49.68,49.68,0,0,0-8.77,4.1V77.16h-8.21Z"/><path class="cls-1" d="M655.25,11.35a1.61,1.61,0,0,1-.46-1.19V2.05A1.47,1.47,0,0,1,656.45.39h5.82c1,0,1.55.56,1.55,1.66v8.11c0,1.1-.52,1.66-1.55,1.66h-5.82A1.64,1.64,0,0,1,655.25,11.35Zm0,10.34h8.21V77.16H655.2Z"/><path class="cls-1" d="M685.53,73q-3.84-4.2-3.63-13.76l.31-30.75h-8.83v-5.3l8.93-1.45,1.35-15.48H690V21.69h16v6.75H690V59.19q0,6.33,2.39,8.67a9.48,9.48,0,0,0,6,2.65l6.75.62v6h-7.59Q689.38,77.16,685.53,73Z"/><path class="cls-1" d="M725.63,75.39a15.34,15.34,0,0,1-7.74-8.57q-2.55-6.18-2.54-17.5t2.59-17.61q2.59-6.18,7.69-8.47c3.39-1.52,8-2.28,13.71-2.28s10.25.78,13.72,2.34a15.27,15.27,0,0,1,7.79,8.51q2.6,6.19,2.59,17.51t-2.59,17.5a15.55,15.55,0,0,1-7.74,8.57q-5.15,2.4-13.77,2.39T725.63,75.39Zm22.7-5.87q3.27-1.5,5-6.18t1.76-14q0-9.34-1.71-14c-1.14-3.08-2.82-5.13-5-6.13a28,28,0,0,0-18.13,0c-2.18,1-3.84,3.05-5,6.13s-1.72,7.74-1.72,14,.58,10.91,1.72,14,2.8,5.18,5,6.18A22.14,22.14,0,0,0,739.34,71,21.82,21.82,0,0,0,748.33,69.52Z"/><path class="cls-1" d="M777.26,21.69h6.23l2,9.66a32.89,32.89,0,0,1,8.72-7.59,20.23,20.23,0,0,1,10.29-2.7,24.8,24.8,0,0,1,5.19.52V30q-4.67-.53-6-.52a21.35,21.35,0,0,0-9.51,2,37.45,37.45,0,0,0-8.67,6.34V77.16h-8.21Z"/><path class="cls-1" d="M820.11,11.35a1.62,1.62,0,0,1-.47-1.19V2.05A1.47,1.47,0,0,1,821.3.39h5.82c1,0,1.56.56,1.56,1.66v8.11c0,1.1-.52,1.66-1.56,1.66H821.3A1.62,1.62,0,0,1,820.11,11.35Zm-.05,10.34h8.2V77.16h-8.2Z"/><path class="cls-1" d="M844.05,21.69h6.44l1.77,6.13a45.54,45.54,0,0,1,9.66-5,29.48,29.48,0,0,1,10.6-2q8.61,0,12.88,5.3t4.26,13.4V77.16h-8.21V40.38a12.55,12.55,0,0,0-3.06-8.77,10.88,10.88,0,0,0-8.47-3.38,27.93,27.93,0,0,0-8.88,1.3,49.41,49.41,0,0,0-8.78,4.1V77.16h-8.21Z"/><path class="cls-1" d="M954.69,26.26l-12.47,1a20.71,20.71,0,0,1,3.48,2.75,11.84,11.84,0,0,1,2.49,4.26,20.34,20.34,0,0,1,1.1,7.22,16.52,16.52,0,0,1-4.68,12q-4.68,4.77-15,4.78h-8.83c-3.11,0-5.47.45-7.06,1.35a4.8,4.8,0,0,0-2.39,4.57,3.86,3.86,0,0,0,1.71,3.43,7.26,7.26,0,0,0,4.11,1.14h18.38q9.66,0,14.39,3.74t4.73,11.53V86.4q0,7.69-5.25,11.95t-15.22,4.26H918.74q-8.41,0-13.34-3.48T900.46,88.9V86.4A12.37,12.37,0,0,1,903,78.61a16.52,16.52,0,0,1,6.55-5,9.29,9.29,0,0,1-4-3.38,8.83,8.83,0,0,1-1.35-4.83q0-7.89,9.35-9.87a14,14,0,0,1-7.63-6.49,20.44,20.44,0,0,1-2.24-9.61q0-17.87,21.4-17.87h29.61Zm-34.49,49a14.35,14.35,0,0,0-8.47,2.44,8.36,8.36,0,0,0-3.48,7.32v2.29q0,9.24,12.36,9.24H933.5q6.43,0,9.92-2.44c2.32-1.62,3.48-4.1,3.48-7.42V84.64a8.68,8.68,0,0,0-2.81-6.91q-2.8-2.45-9.56-2.44ZM939,48.9a11.82,11.82,0,0,0,2.86-8.31q0-12.57-12-12.57h-5.93q-6.23,0-9.45,2.76t-3.22,9.09Q911.16,52,922.59,52h6.23Q936.09,52,939,48.9Z"/></svg>