<svg id="Camada_1" data-name="Camada 1" xmlns="http://www.w3.org/2000/svg" viewBox="0 0 672 82"><defs><style>.cls-1{fill:#fff;}</style></defs><title>news_monocromatico_negativo</title><rect class="cls-1" x="316.22" y="0.57" width="11.67" height="58.82"/><path class="cls-1" d="M217,12.34V.57H167.41a8.28,8.28,0,0,0-8.27,8.28V51.12a8.27,8.27,0,0,0,8.27,8.27H217V47.63H170.8V35.87H217V24.1H170.8V12.34Z"/><path class="cls-1" d="M64.79.57H49.11L11.85,38.93V.57H.09V53.51A5.9,5.9,0,0,0,3.77,59a6,6,0,0,0,2.2.42,5.86,5.86,0,0,0,4.24-1.8l19.62-20.5,19.28,22.3H64.79L38,28.55Z"/><path class="cls-1" d="M135,59.39a5.85,5.85,0,0,1-4-1.56L89.91,19.89v39.5H78.14V6.46A5.89,5.89,0,0,1,88,2.13l41.11,37.95V.57h11.76V53.51A5.87,5.87,0,0,1,135,59.39Z"/><path class="cls-1" d="M403,59.39a5.85,5.85,0,0,1-4-1.56l-41.1-37.94v39.5H346.14V6.46A5.89,5.89,0,0,1,356,2.13l41.11,37.95V.57h11.76V53.51A5.87,5.87,0,0,1,403,59.39Z"/><path class="cls-1" d="M241.11,59.39a5.88,5.88,0,0,1-5.88-5.88V.57H247V37.68l14.17-16.44a5.89,5.89,0,0,1,8.76-.17l16.29,17.49V.57H298V53.51a5.89,5.89,0,0,1-10.19,4l-22-23.63L245.57,57.35A5.89,5.89,0,0,1,241.11,59.39Z"/><polygon class="cls-1" points="234.39 70.18 234.39 75.98 234.39 81.78 408.88 81.78 408.88 75.98 408.88 70.18 234.39 70.18"/><path class="cls-1" d="M435.48,1.16h6.44l1.76,6.13a45.37,45.37,0,0,1,9.67-5,29.47,29.47,0,0,1,10.59-2q8.63,0,12.88,5.3t4.26,13.4V56.63h-8.21V19.86a12.57,12.57,0,0,0-3.06-8.78,10.87,10.87,0,0,0-8.47-3.38A28.22,28.22,0,0,0,452.46,9a49.86,49.86,0,0,0-8.78,4.11V56.63h-8.2Z"/><path class="cls-1" d="M503.88,54.66a15,15,0,0,1-7.11-8.73q-2.19-6.12-2.18-17.14t2.23-17.24A14.8,14.8,0,0,1,504,2.92Q509,.43,517.86.43A36.64,36.64,0,0,1,530,2.09a12.06,12.06,0,0,1,6.75,5.67q2.19,4,2.18,11.06t-4.1,10.23q-4.11,3.17-11.69,3.17H502.79a36.89,36.89,0,0,0,1.46,11.06,9.7,9.7,0,0,0,5,5.72c2.43,1.21,5.92,1.81,10.5,1.81h17.86v5q-5.61.73-10,1.09t-9.87.36Q508.81,57.25,503.88,54.66Zm18.55-27.84q4.77,0,7-1.77c1.45-1.17,2.18-3.22,2.18-6.13q0-7-3.07-9.61T517.86,6.67c-4,0-7.1.58-9.25,1.76a9.89,9.89,0,0,0-4.57,6q-1.35,4.26-1.35,12.36Z"/><path class="cls-1" d="M545.8,1.16h8.41l13.61,47.78,14-47.78H589l14,47.78L616.23,1.16h8.42L607.92,56.63h-9L585.27,12.17,571.56,56.63h-8.93Z"/><path class="cls-1" d="M640.33,56.84a65.21,65.21,0,0,1-9.66-1v-5h22.75c3.88,0,6.72-.51,8.52-1.55s2.7-3.22,2.7-6.55V40.22q0-7.8-10.08-7.79h-7.79q-8,0-12.31-3.12t-4.31-10.59V15.81q0-7.91,4.62-11.53T649.68.64q4.47,0,10.54.47c4.06.31,7.22.67,9.51,1.09v5h-21.4c-3.74,0-6.51.63-8.31,1.87s-2.7,3.5-2.7,6.76v2.28q0,4.47,2.65,6t8.15,1.51H656q7.58,0,11.74,3.53t4.15,10.18v3.85q0,7.89-5.09,11t-14.75,3.11Q647.39,57.25,640.33,56.84Z"/></svg>